<svg xmlns="http://www.w3.org/2000/svg" viewBox="0 0 48 48" fill="none">
  <rect x="3" y="3" width="42" height="42" rx="10" fill="#1f2a28" stroke="#d9a441" stroke-width="2"/>
  <path d="M18.5 28.5h11" stroke="#d9a441" stroke-width="2.6" stroke-linecap="round"/>
  <path d="M20.5 33h7" stroke="#d9a441" stroke-width="2.6" stroke-linecap="round"/>
  <path
    d="M24 10c-6 0-10.5 4.6-10.5 10.4 0 3.2 1.4 6.1 4 8l1.2.9h10.6l1.2-.9c2.6-1.9 4-4.8 4-8C34.5 14.6 30 10 24 10Z"
    fill="#d9a441"
    fill-opacity="0.14"
    stroke="#d9a441"
    stroke-width="2.6"
    stroke-linejoin="round"
  />
  <path d="M21 24.5h6v4h-6z" fill="#d9a441" stroke="#d9a441" stroke-width="1.4" stroke-linejoin="round"/>
  <path d="M24 8.5V6.2" stroke="#d9a441" stroke-width="2.4" stroke-linecap="round"/>
  <path d="M13.7 15.2 12 13.5" stroke="#d9a441" stroke-width="2.2" stroke-linecap="round"/>
  <path d="M34.3 15.2 36 13.5" stroke="#d9a441" stroke-width="2.2" stroke-linecap="round"/>
  <path d="M10.2 22.2H7.8" stroke="#d9a441" stroke-width="2.2" stroke-linecap="round"/>
  <path d="M40.2 22.2h-2.4" stroke="#d9a441" stroke-width="2.2" stroke-linecap="round"/>
</svg>
